<svg width="927" height="280" viewBox="0 0 927 280" fill="none" xmlns="http://www.w3.org/2000/svg">
<g filter="url(#filter0_f_11_618)">
<g style="mix-blend-mode:difference">
<path d="M289.5 249.182C289.5 268.995 575.471 279.46 383 279.46C190.529 279.46 70 193.172 70 173.359C70 153.545 190.529 207.708 383 207.708C575.471 207.708 289.5 229.368 289.5 249.182Z" fill="#0066FF"/>
</g>
<g style="mix-blend-mode:difference">
<path d="M605.317 297.071C605.317 316.885 415.788 366.533 223.317 366.533C30.8457 366.533 264.5 334.728 329.317 281.55C382.317 229.391 353.346 215.396 545.817 215.396C738.288 215.396 605.317 277.258 605.317 297.071Z" fill="#31EE88"/>
</g>
<g style="mix-blend-mode:difference">
<path d="M679.818 196.7C786.649 268.047 788.612 301.875 761.825 398.866C735.038 495.857 495.149 432.16 490.149 354.556C485.149 276.952 485.812 312.307 512.599 215.316C539.386 118.325 572.987 125.353 679.818 196.7Z" fill="#FFB84F"/>
</g>
</g>
<defs>
<filter id="filter0_f_11_618" x="-80" y="-7.19336" width="1006.22" height="605.183" filterUnits="userSpaceOnUse" color-interpolation-filters="sRGB">
<feFlood flood-opacity="0" result="BackgroundImageFix"/>
<feBlend mode="normal" in="SourceGraphic" in2="BackgroundImageFix" result="shape"/>
<feGaussianBlur stdDeviation="75" result="effect1_foregroundBlur_11_618"/>
</filter>
</defs>
</svg>
