<svg width="84" height="91" viewBox="0 0 84 91" fill="none" xmlns="http://www.w3.org/2000/svg">
<g filter="url(#filter0_d_1_38)">
<path d="M50.6617 39.975C50.6617 41.8355 49.2989 43.3605 47.5726 43.3605C45.8766 43.3605 44.4834 41.8355 44.4834 39.975C44.4834 38.1145 45.8463 36.5895 47.5726 36.5895C49.2989 36.5895 50.6617 38.1145 50.6617 39.975ZM36.5183 36.5895C34.792 36.5895 33.4291 38.1145 33.4291 39.975C33.4291 41.8355 34.8223 43.3605 36.5183 43.3605C38.2446 43.3605 39.6074 41.8355 39.6074 39.975C39.6377 38.1145 38.2446 36.5895 36.5183 36.5895ZM68.5 17.283V72C60.8701 65.2097 63.3103 67.4574 54.4474 59.1595L56.0526 64.802H21.7086C18.2863 64.802 15.5 61.996 15.5 58.519V17.283C15.5 13.806 18.2863 11 21.7086 11H62.2914C65.7137 11 68.5 13.806 68.5 17.283ZM59.8686 46.197C59.8686 36.376 55.5074 28.4155 55.5074 28.4155C51.1463 25.1215 46.9971 25.213 46.9971 25.213L46.5731 25.701C51.7217 27.287 54.1143 29.5745 54.1143 29.5745C46.9201 25.6037 38.4693 25.6029 31.4909 28.69C30.3703 29.2085 29.704 29.5745 29.704 29.5745C29.704 29.5745 32.2177 27.165 37.6691 25.579L37.3663 25.213C37.3663 25.213 33.2171 25.1215 28.856 28.4155C28.856 28.4155 24.4949 36.376 24.4949 46.197C24.4949 46.197 27.0389 50.6195 33.732 50.833C33.732 50.833 34.8526 49.4605 35.7611 48.3015C31.9149 47.1425 30.4611 44.7025 30.4611 44.7025C30.9067 45.0166 31.6413 45.4237 31.7029 45.465C36.8148 48.348 44.076 49.2925 50.6011 46.5325C51.6611 46.136 52.8423 45.5565 54.084 44.733C54.084 44.733 52.5697 47.234 48.6023 48.3625C49.5109 49.5215 50.6011 50.833 50.6011 50.833C57.2943 50.6195 59.8686 46.197 59.8686 46.197V46.197Z" fill="white"/>
</g>
<defs>
<filter id="filter0_d_1_38" x="0.5" y="0" width="83" height="91" filterUnits="userSpaceOnUse" color-interpolation-filters="sRGB">
<feFlood flood-opacity="0" result="BackgroundImageFix"/>
<feColorMatrix in="SourceAlpha" type="matrix" values="0 0 0 0 0 0 0 0 0 0 0 0 0 0 0 0 0 0 127 0" result="hardAlpha"/>
<feOffset dy="4"/>
<feGaussianBlur stdDeviation="7.5"/>
<feComposite in2="hardAlpha" operator="out"/>
<feColorMatrix type="matrix" values="0 0 0 0 0 0 0 0 0 0 0 0 0 0 0 0 0 0 0.12 0"/>
<feBlend mode="normal" in2="BackgroundImageFix" result="effect1_dropShadow_1_38"/>
<feBlend mode="normal" in="SourceGraphic" in2="effect1_dropShadow_1_38" result="shape"/>
</filter>
</defs>
</svg>
