<svg width="80" height="79" viewBox="0 0 80 79" fill="none" xmlns="http://www.w3.org/2000/svg">
<g filter="url(#filter0_d_1_40)">
<path d="M40.0055 22.937C33.0531 22.937 27.4453 28.5461 27.4453 35.5C27.4453 42.4539 33.0531 48.063 40.0055 48.063C46.9578 48.063 52.5656 42.4539 52.5656 35.5C52.5656 28.5461 46.9578 22.937 40.0055 22.937ZM40.0055 43.6676C35.5127 43.6676 31.8397 40.0047 31.8397 35.5C31.8397 30.9953 35.5017 27.3324 40.0055 27.3324C44.5092 27.3324 48.1712 30.9953 48.1712 35.5C48.1712 40.0047 44.4983 43.6676 40.0055 43.6676V43.6676ZM56.009 22.4231C56.009 24.0523 54.6973 25.3534 53.0794 25.3534C51.4506 25.3534 50.1498 24.0413 50.1498 22.4231C50.1498 20.8049 51.4616 19.4929 53.0794 19.4929C54.6973 19.4929 56.009 20.8049 56.009 22.4231ZM64.3278 25.3971C64.142 21.4719 63.2456 17.9949 60.3707 15.1303C57.5066 12.2656 54.0305 11.369 50.1061 11.1722C46.0615 10.9426 33.9385 10.9426 29.8939 11.1722C25.9805 11.3581 22.5043 12.2547 19.6293 15.1193C16.7544 17.984 15.8689 21.461 15.6722 25.3862C15.4426 29.4317 15.4426 41.5573 15.6722 45.6029C15.858 49.5281 16.7544 53.0051 19.6293 55.8697C22.5043 58.7344 25.9695 59.631 29.8939 59.8278C33.9385 60.0574 46.0615 60.0574 50.1061 59.8278C54.0305 59.6419 57.5066 58.7453 60.3707 55.8697C63.2347 53.0051 64.1311 49.5281 64.3278 45.6029C64.5574 41.5573 64.5574 29.4427 64.3278 25.3971V25.3971ZM59.1026 49.9436C58.25 52.0866 56.5993 53.7376 54.4458 54.6014C51.2211 55.8807 43.5691 55.5855 40.0055 55.5855C36.4418 55.5855 28.7789 55.8697 25.5651 54.6014C23.4225 53.7486 21.7719 52.0976 20.9083 49.9436C19.6293 46.7181 19.9245 39.0644 19.9245 35.5C19.9245 31.9356 19.6403 24.2709 20.9083 21.0564C21.761 18.9134 23.4116 17.2624 25.5651 16.3986C28.7898 15.1193 36.4418 15.4145 40.0055 15.4145C43.5691 15.4145 51.232 15.1303 54.4458 16.3986C56.5884 17.2514 58.239 18.9024 59.1026 21.0564C60.3816 24.2819 60.0864 31.9356 60.0864 35.5C60.0864 39.0644 60.3816 46.7291 59.1026 49.9436Z" fill="white"/>
</g>
<defs>
<filter id="filter0_d_1_40" x="0.5" y="0" width="79" height="79" filterUnits="userSpaceOnUse" color-interpolation-filters="sRGB">
<feFlood flood-opacity="0" result="BackgroundImageFix"/>
<feColorMatrix in="SourceAlpha" type="matrix" values="0 0 0 0 0 0 0 0 0 0 0 0 0 0 0 0 0 0 127 0" result="hardAlpha"/>
<feOffset dy="4"/>
<feGaussianBlur stdDeviation="7.5"/>
<feComposite in2="hardAlpha" operator="out"/>
<feColorMatrix type="matrix" values="0 0 0 0 0 0 0 0 0 0 0 0 0 0 0 0 0 0 0.12 0"/>
<feBlend mode="normal" in2="BackgroundImageFix" result="effect1_dropShadow_1_40"/>
<feBlend mode="normal" in="SourceGraphic" in2="effect1_dropShadow_1_40" result="shape"/>
</filter>
</defs>
</svg>
